<svg xmlns="http://www.w3.org/2000/svg" xmlns:xlink="http://www.w3.org/1999/xlink" width="48.189" height="48.189" viewBox="0 0 48.189 48.189"><defs><style>.a{fill:#2095d2;}.b{filter:url(#a);}</style><filter id="a" x="0" y="0" width="48.189" height="48.189" filterUnits="userSpaceOnUse"><feOffset dy="3" input="SourceAlpha"/><feGaussianBlur stdDeviation="3" result="b"/><feFlood flood-opacity="0.161"/><feComposite operator="in" in2="b"/><feComposite in="SourceGraphic"/></filter></defs><g class="b" transform="matrix(1, 0, 0, 1, 0, 0)"><path class="a" d="M27.458,0H2.731A2.731,2.731,0,0,0,0,2.731V27.458a2.731,2.731,0,0,0,2.731,2.731H27.458a2.731,2.731,0,0,0,2.731-2.731V2.731A2.731,2.731,0,0,0,27.458,0ZM9.342,26.067a.8.8,0,0,1-.795.795H5.164a.8.8,0,0,1-.795-.795V11.886a.8.8,0,0,1,.795-.795H8.547a.8.8,0,0,1,.795.795ZM6.856,9.755a3.214,3.214,0,1,1,3.214-3.214A3.214,3.214,0,0,1,6.856,9.755ZM27.021,26.131a.731.731,0,0,1-.731.731H22.66a.731.731,0,0,1-.731-.731V19.479c0-.992.291-4.348-2.593-4.348-2.237,0-2.691,2.3-2.782,3.328v7.672a.731.731,0,0,1-.731.731H12.312a.731.731,0,0,1-.731-.731V11.822a.731.731,0,0,1,.731-.731h3.511a.731.731,0,0,1,.731.731v1.237c.83-1.245,2.062-2.206,4.687-2.206,5.813,0,5.779,5.431,5.779,8.414v6.863Z" transform="translate(9 6)"/></g></svg>