<svg xmlns="http://www.w3.org/2000/svg" xmlns:xlink="http://www.w3.org/1999/xlink" width="48.189" height="48.189" viewBox="0 0 48.189 48.189"><defs><style>.a{fill:#2095d2;}.b{filter:url(#a);}</style><filter id="a" x="0" y="0" width="48.189" height="48.189" filterUnits="userSpaceOnUse"><feOffset dy="3" input="SourceAlpha"/><feGaussianBlur stdDeviation="3" result="b"/><feFlood flood-opacity="0.161"/><feComposite operator="in" in2="b"/><feComposite in="SourceGraphic"/></filter></defs><g transform="translate(9 6)"><g class="b" transform="matrix(1, 0, 0, 1, -9, -6)"><path class="a" d="M21.2,0H8.993A9,9,0,0,0,0,8.993V21.2a9,9,0,0,0,8.993,8.993H21.2A9,9,0,0,0,30.189,21.2V8.993A9,9,0,0,0,21.2,0Zm5.956,21.2A5.956,5.956,0,0,1,21.2,27.152H8.993A5.956,5.956,0,0,1,3.037,21.2V8.993A5.956,5.956,0,0,1,8.993,3.037H21.2a5.956,5.956,0,0,1,5.956,5.956V21.2Z" transform="translate(9 6)"/></g><path class="a" d="M140.914,133a7.914,7.914,0,1,0,7.914,7.914A7.923,7.923,0,0,0,140.914,133Zm0,12.75a4.836,4.836,0,1,1,4.836-4.836A4.836,4.836,0,0,1,140.914,145.75Z" transform="translate(-125.82 -125.82)"/><ellipse class="a" cx="1.844" cy="1.844" rx="1.844" ry="1.844" transform="translate(21.09 5.486)"/></g></svg>