<svg xmlns="http://www.w3.org/2000/svg" width="44.045" height="41.291" viewBox="0 0 44.045 41.291"><defs><style>.a{fill:#fff;}</style></defs><path class="a" d="M188.448,0A6.452,6.452,0,1,0,194.9,6.452,6.459,6.459,0,0,0,188.448,0Zm0,10.323a3.871,3.871,0,1,1,3.871-3.871A3.876,3.876,0,0,1,188.448,10.323Zm0,0" transform="translate(-166.34)"/><path class="a" d="M307.154,160.319a5.161,5.161,0,1,0-5.161-5.161A5.167,5.167,0,0,0,307.154,160.319Zm0-7.742a2.581,2.581,0,1,1-2.581,2.581A2.584,2.584,0,0,1,307.154,152.577Zm0,0" transform="translate(-276.013 -137.093)"/><path class="a" d="M37.943,219.478,31.4,222.9h-.482a3.872,3.872,0,0,0-3.65-5.161H22.5l-6.116-4.078a6.431,6.431,0,0,0-3.579-1.084H7.52A3.877,3.877,0,0,0,3.871,210H1.29A1.29,1.29,0,0,0,0,211.286v18.065a1.29,1.29,0,0,0,1.29,1.29H3.871a3.874,3.874,0,0,0,3.4-2.03l8.009,3.931a6.484,6.484,0,0,0,2.881.679H28.531a6.445,6.445,0,0,0,3.389-.962C43.1,225.368,42.407,225.8,42.5,225.738a3.871,3.871,0,0,0-4.552-6.261ZM5.162,226.771a1.292,1.292,0,0,1-1.29,1.29H2.581V212.577h1.29a1.292,1.292,0,0,1,1.29,1.29Zm35.824-3.127-10.42,6.42a3.868,3.868,0,0,1-2.034.578H18.165a3.89,3.89,0,0,1-1.731-.409l-.008,0-8.683-4.262V215.158H12.8a3.857,3.857,0,0,1,2.147.65l6.442,4.295a1.29,1.29,0,0,0,.715.217h5.162a1.29,1.29,0,1,1,0,2.58H16.947a1.29,1.29,0,0,0,0,2.581H31.718a1.291,1.291,0,0,0,.6-.147c7.282-3.815,6.926-3.606,7.083-3.724a1.29,1.29,0,0,1,1.587,2.034Zm0,0" transform="translate(0 -191.931)"/></svg>