<svg xmlns="http://www.w3.org/2000/svg" width="54.123" height="51.954" viewBox="0 0 54.123 51.954"><defs><style>.a{fill:#fff;}</style></defs><g transform="translate(0 -10.262)"><g transform="translate(0 10.262)"><path class="a" d="M54.019,38.739A21.336,21.336,0,0,0,37.428,20.03V17.344a3.594,3.594,0,0,0-.867-7.082H28.949a3.594,3.594,0,0,0-.868,7.082v2.693a21.226,21.226,0,0,0-10.41,5.726A21.456,21.456,0,0,0,15.876,27.8c-.027,0-.053,0-.08,0H8.263a1.057,1.057,0,1,0,0,2.114h6.175a21.192,21.192,0,0,0-1.876,4.063H1.057a1.057,1.057,0,1,0,0,2.114H11.965a21.493,21.493,0,0,0-.525,4.063H6.766a1.057,1.057,0,1,0,0,2.114h4.708a21.462,21.462,0,0,0,.66,4.063H5.286a1.057,1.057,0,0,0,0,2.114h7.523A21.351,21.351,0,0,0,30.66,62.113q1.047.1,2.1.1a21.4,21.4,0,0,0,11.653-3.444A1.057,1.057,0,1,0,43.255,57a19.239,19.239,0,1,1,5.667-5.674,1.057,1.057,0,1,0,1.773,1.151A21.422,21.422,0,0,0,54.019,38.739ZM27.469,13.856a1.482,1.482,0,0,1,1.48-1.48H36.56a1.48,1.48,0,1,1,0,2.96H28.949A1.482,1.482,0,0,1,27.469,13.856ZM30.2,19.674V17.45h5.118v2.22A21.539,21.539,0,0,0,30.2,19.674Z" transform="translate(0 -10.262)"/><path class="a" d="M436.827,425.5a1.058,1.058,0,1,0,.747.31A1.063,1.063,0,0,0,436.827,425.5Z" transform="translate(-389.704 -381.605)"/><path class="a" d="M171.271,144.609a16.4,16.4,0,1,0,16.4,16.4A16.417,16.417,0,0,0,171.271,144.609Zm0,30.684a14.285,14.285,0,1,1,14.285-14.285A14.3,14.3,0,0,1,171.271,175.293Z" transform="translate(-138.5 -130.407)"/><path class="a" d="M269.322,219.721l-5.236,5.236a3.276,3.276,0,0,0-2.9,0l-2.343-2.343a1.057,1.057,0,0,0-1.5,1.495l2.343,2.343a3.285,3.285,0,1,0,5.892,0l5.082-5.082h0l.154-.154a1.057,1.057,0,0,0-1.495-1.495Zm-6.687,9.352a1.171,1.171,0,1,1,1.171-1.171A1.172,1.172,0,0,1,262.635,229.073Z" transform="translate(-229.865 -197.302)"/><path class="a" d="M399.692,289.86h-.979a1.057,1.057,0,1,0,0,2.114h.979a1.057,1.057,0,1,0,0-2.114Z" transform="translate(-355.618 -260.303)"/><path class="a" d="M195.118,289.616h-.979a1.057,1.057,0,0,0,0,2.114h.979a1.057,1.057,0,0,0,0-2.114Z" transform="translate(-172.671 -260.085)"/><path class="a" d="M301.18,185.913a1.057,1.057,0,0,0,1.057-1.057v-.979a1.057,1.057,0,1,0-2.114,0v.979A1.057,1.057,0,0,0,301.18,185.913Z" transform="translate(-268.397 -164.578)"/><path class="a" d="M300.936,387.393a1.057,1.057,0,0,0-1.057,1.057v.979a1.057,1.057,0,1,0,2.114,0v-.979A1.057,1.057,0,0,0,300.936,387.393Z" transform="translate(-268.178 -347.526)"/><path class="a" d="M1.057,351.44a1.057,1.057,0,1,0,.747,1.8,1.057,1.057,0,0,0-.747-1.8Z" transform="translate(0 -315.374)"/></g></g></svg>